<svg id="Layer_1" xmlns="http://www.w3.org/2000/svg" viewBox="0 0 354.2 120.8"><style>.st0{fill-rule:evenodd;clip-rule:evenodd;fill:#233f8d}</style><path class="st0" d="M275 57.3c8.5 0 15.3 6.9 15.3 15.3 0 8.5-6.9 15.3-15.3 15.3-8.5 0-15.3-6.9-15.3-15.3s6.8-15.3 15.3-15.3m-68 20.1h-13.9l7-12.1 6.9 12.1zm-18.7 8.2h23.4l1.9 3.3 4.3 7.4h9.4l-13.6-23.6L200 49.1l-13.6 23.6-13.6 23.6h9.4l4.3-7.4 1.8-3.3zm65.6-28.3V49h-35.4v8.3h13.6v38.9h8.3V57.3h13.5zm49.5 38.9V49.1l38.2 30.3V49.1h8.5v47.2L311.9 66v30.3h-8.5zM275 49.1c13 0 23.6 10.6 23.6 23.6 0 13-10.6 23.6-23.6 23.6-13 0-23.6-10.6-23.6-23.6 0-13.1 10.6-23.6 23.6-23.6z"/><path d="M346.1 107.4l4 9.2H349l-1.1-2.7h-3.4l-1.1 2.7h-1.1l3.8-9.2zm0 2.3l-1.4 3.2h2.8l-1.4-3.2zm-6.4 6.8v-8.8h1v8.8h-1zm-5.6-4.5h3.6v.3c0 1.4-.4 2.5-1.2 3.3-.8.8-1.9 1.2-3.2 1.2-.4 0-.8 0-1.2-.1-.4-.1-.7-.2-1-.4-.7-.4-1.3-.9-1.7-1.6-.4-.7-.6-1.5-.6-2.4 0-.7.1-1.4.4-2 .2-.6.6-1.1 1.1-1.6.4-.4.9-.7 1.4-.9.5-.2 1.1-.3 1.7-.3.8 0 1.6.2 2.2.5.6.3 1.1.8 1.5 1.4l-.9.7c-.3-.5-.7-.9-1.2-1.2-.5-.3-1-.4-1.6-.4-1 0-1.9.3-2.5 1-.6.7-1 1.6-1 2.7s.3 1.9 1 2.6c.6.7 1.5 1 2.5 1 .9 0 1.6-.3 2.2-.8.6-.5.9-1.2 1-2.1h-2.5v-.9zm-6.9.1c0 .6-.1 1.2-.3 1.8-.2.6-.6 1.1-1 1.5-.4.4-1 .8-1.5 1-.6.2-1.2.4-1.8.4-.6 0-1.2-.1-1.8-.4-.6-.2-1.1-.6-1.5-1-.4-.4-.8-.9-1-1.5-.2-.6-.4-1.1-.4-1.8 0-.6.1-1.2.4-1.8.2-.6.6-1.1 1-1.5.4-.4 1-.8 1.5-1 .6-.2 1.2-.3 1.8-.3.6 0 1.2.1 1.8.3.6.2 1.1.6 1.5 1 .4.4.8.9 1 1.5.2.6.3 1.2.3 1.8zm-4.7 3.7c.5 0 .9-.1 1.4-.3.4-.2.8-.4 1.2-.8.3-.3.6-.7.8-1.2.2-.4.3-.9.3-1.4 0-.5-.1-1-.3-1.4-.2-.4-.4-.8-.8-1.2-.3-.3-.7-.6-1.2-.8-.4-.2-.9-.3-1.4-.3-.5 0-1 .1-1.4.3-.4.2-.8.4-1.2.8-.3.3-.6.7-.8 1.2-.2.4-.3.9-.3 1.4 0 .5.1 1 .3 1.4.2.4.4.8.8 1.2.4.4.7.6 1.2.8.4.2.9.3 1.4.3zm-9.9.7v-8.8h1v7.8h3.3v1h-4.3zm-2.1-4.4c0 .6-.1 1.2-.3 1.8-.2.6-.6 1.1-1 1.5-.4.4-1 .8-1.5 1-.6.2-1.2.4-1.8.4-.6 0-1.2-.1-1.8-.4-.6-.2-1.1-.6-1.5-1-.4-.4-.8-.9-1-1.5-.2-.6-.4-1.1-.4-1.8 0-.6.1-1.2.4-1.8.2-.6.6-1.1 1-1.5.4-.4 1-.8 1.5-1 .6-.2 1.2-.3 1.8-.3.6 0 1.2.1 1.8.3.6.2 1.1.6 1.5 1 .4.4.8.9 1 1.5.2.6.3 1.2.3 1.8zm-4.7 3.7c.5 0 .9-.1 1.4-.3.4-.2.8-.4 1.2-.8.3-.3.6-.7.8-1.2.2-.4.3-.9.3-1.4 0-.5-.1-1-.3-1.4-.2-.4-.4-.8-.8-1.2-.3-.3-.7-.6-1.2-.8-.4-.2-.9-.3-1.4-.3-.5 0-1 .1-1.4.3-.4.2-.8.4-1.2.8-.3.3-.6.7-.8 1.2-.2.4-.3.9-.3 1.4 0 .5.1 1 .3 1.4.2.4.4.8.8 1.2.4.4.7.6 1.2.8.4.2.9.3 1.4.3zm-14.3.7v-9.2l6.4 7v-6.7h1v9.2l-6.4-7v6.6h-1zm-2.2-6.7c-.4-.5-.9-.8-1.3-1-.5-.2-1-.3-1.6-.3-.5 0-.9.1-1.4.3-.4.2-.8.5-1.2.8-.3.3-.6.7-.8 1.2-.2.4-.3.9-.3 1.4 0 .4 0 .8.2 1.1.1.3.3.7.5 1 .4.5.8.9 1.3 1.2.5.3 1.1.4 1.7.4.6 0 1.1-.1 1.6-.3.5-.2.9-.6 1.3-1v1.4c-.4.3-.9.6-1.4.7-.5.2-1 .2-1.6.2-.5 0-.9-.1-1.4-.2-.4-.1-.9-.3-1.2-.6-.6-.4-1.1-1-1.5-1.6-.3-.7-.5-1.4-.5-2.1 0-.7.1-1.3.3-1.9.2-.6.6-1.1 1-1.5.4-.4.9-.8 1.5-1 .5-.2 1.1-.3 1.8-.3.5 0 1 .1 1.5.2.5.2.9.4 1.4.7v1.2zm-13.9 6.7v-8.8h4.6v1h-3.6v2.5h3.6v1h-3.6v3.4h3.6v1h-4.6zm-5.1 0v-7.8h-2.5v-1h6v1h-2.5v7.8h-1zm-11.8.4l-2.7-6.3-1.1 6h-1l1.8-9.2 3.1 7.3 3.1-7.3 1.8 9.2h-1l-1.1-6-2.9 6.3zm-10.9-.4v-8.8h4.6v1h-3.6v2.5h3.6v1h-3.6v3.4h3.6v1h-4.6zm-10.8-4.9c.6.2 1 .6 1.3 1 .3.4.4.9.4 1.4 0 .8-.3 1.5-.8 2s-1.2.7-2.1.7c-.7 0-1.3-.2-1.7-.5-.5-.4-.8-.9-1-1.5l1-.5c.1.5.3.9.6 1.2.3.3.7.4 1.1.4.5 0 1-.2 1.3-.5.3-.3.5-.7.5-1.2 0-.4-.1-.7-.3-1-.2-.3-.6-.5-1-.7l-1.1-.4c-.6-.2-1-.6-1.3-.9-.3-.4-.4-.8-.4-1.4 0-.6.2-1.1.7-1.6.5-.4 1.1-.6 1.8-.6.5 0 1 .1 1.4.3.4.2.7.6.9 1l-.9.6c-.2-.3-.4-.6-.7-.8-.2-.2-.5-.3-.8-.3-.4 0-.7.1-1 .4-.3.2-.4.5-.4.9 0 .3.1.6.3.8.2.2.5.4.9.6l1.3.6zm-10.1 4.9v-8.8h4.6v1h-3.6v2.5h3.6v1h-3.6v3.4h3.6v1h-4.6zm-5-11.3c-.1.4-.2.7-.4.9-.2.2-.5.3-.8.3h-.4l-.6-.2h-.3c-.1 0-.2 0-.3.1-.1.1-.2.2-.2.3h-.5c.1-.4.2-.7.4-.9.2-.2.5-.3.8-.3h.4l.6.2h.3c.1 0 .2 0 .3-.1.1-.1.2-.2.2-.3h.5zm2.9 6.9c0 .6-.1 1.2-.3 1.8-.2.6-.6 1.1-1 1.5-.4.4-1 .8-1.5 1-.6.2-1.2.4-1.8.4s-1.2-.1-1.8-.4c-.6-.2-1.1-.6-1.5-1-.4-.4-.8-.9-1-1.5-.2-.6-.4-1.1-.4-1.8 0-.6.1-1.2.4-1.8.2-.6.6-1.1 1-1.5.4-.4 1-.8 1.5-1 .6-.2 1.2-.3 1.8-.3.6 0 1.2.1 1.8.3.6.2 1.1.6 1.5 1 .4.4.8.9 1 1.5.2.6.3 1.2.3 1.8zm-4.7 3.7c.5 0 .9-.1 1.4-.3.4-.2.8-.4 1.2-.8.3-.3.6-.7.8-1.2.2-.4.3-.9.3-1.4 0-.5-.1-1-.3-1.4-.2-.4-.4-.8-.8-1.2-.3-.3-.7-.6-1.2-.8-.4-.2-.9-.3-1.4-.3-.5 0-1 .1-1.4.3-.4.2-.8.4-1.2.8-.3.3-.6.7-.8 1.2-.2.4-.3.9-.3 1.4 0 .5.1 1 .3 1.4.2.4.4.8.8 1.2.4.4.7.6 1.2.8.5.2.9.3 1.4.3zm-11 3.3v-.6c.3.1.6.1.9.2.3 0 .5.1.6.1.2 0 .4 0 .5-.1.1-.1.2-.2.2-.4s-.1-.3-.2-.4c-.1-.1-.3-.1-.6-.1h-.3v-1.2h.5v.6h.2c.4 0 .8.1 1 .3.2.2.3.5.3.8 0 .4-.1.6-.4.8-.3.2-.6.3-1.1.3-.2 0-.4 0-.7-.1-.3-.1-.6-.1-.9-.2zm4.5-9.3c-.4-.5-.9-.8-1.3-1-.5-.2-1-.3-1.6-.3-.5 0-.9.1-1.4.3-.4.2-.8.5-1.2.8-.3.3-.6.7-.8 1.2-.2.4-.3.9-.3 1.4 0 .4 0 .8.2 1.1.1.3.3.7.5 1 .4.5.8.9 1.3 1.2.5.3 1.1.4 1.7.4.6 0 1.1-.1 1.6-.3.5-.2.9-.6 1.3-1v1.4c-.4.3-.9.6-1.4.7-.5.2-1 .2-1.6.2-.5 0-.9-.1-1.4-.2-.4-.1-.9-.3-1.2-.6-.6-.4-1.1-1-1.5-1.6-.3-.7-.5-1.4-.5-2.1 0-.7.1-1.3.3-1.9.2-.6.6-1.1 1-1.5.4-.4.9-.8 1.5-1 .5-.2 1.1-.3 1.8-.3.5 0 1 .1 1.5.2.5.2.9.4 1.4.7v1.2zm-16.4-2.1h1.1v5.5c0 .9.2 1.5.6 2 .4.4 1 .6 1.8.6s1.4-.2 1.8-.6c.4-.4.6-1.1.6-2v-5.5h1.1v5.5c0 1.2-.3 2.1-.9 2.7-.6.6-1.4.9-2.6.9-1.1 0-2-.3-2.6-.9-.6-.6-.9-1.5-.9-2.7v-5.5zm-5.8 8.8v-8.8h1v7.8h3.3v1h-4.3zm-2.1-4.4c0 .6-.1 1.2-.3 1.8-.2.6-.6 1.1-1 1.5-.4.4-1 .8-1.5 1-.6.2-1.2.4-1.8.4-.6 0-1.2-.1-1.8-.4-.6-.2-1.1-.6-1.5-1-.4-.4-.8-.9-1-1.5-.2-.6-.4-1.1-.4-1.8 0-.6.1-1.2.4-1.8.2-.6.6-1.1 1-1.5.4-.4 1-.8 1.5-1 .6-.2 1.2-.3 1.8-.3.6 0 1.2.1 1.8.3.6.2 1.1.6 1.5 1 .4.4.8.9 1 1.5.2.6.3 1.2.3 1.8zm-4.7 3.7c.5 0 .9-.1 1.4-.3.4-.2.8-.4 1.2-.8.3-.3.6-.7.8-1.2.2-.4.3-.9.3-1.4 0-.5-.1-1-.3-1.4-.2-.4-.4-.8-.8-1.2-.3-.3-.7-.6-1.2-.8-.4-.2-.9-.3-1.4-.3-.5 0-1 .1-1.4.3-.4.2-.8.4-1.2.8-.3.3-.6.7-.8 1.2-.2.4-.3.9-.3 1.4 0 .5.1 1 .3 1.4.2.4.4.8.8 1.2.4.4.7.6 1.2.8.5.2.9.3 1.4.3zm-7.8-4.2c.6.2 1 .6 1.3 1 .3.4.4.9.4 1.4 0 .8-.3 1.5-.8 2s-1.2.7-2.1.7c-.7 0-1.3-.2-1.7-.5-.5-.4-.8-.9-1-1.5l1-.5c.1.5.3.9.6 1.2.3.3.7.4 1.1.4.5 0 1-.2 1.3-.5.3-.3.5-.7.5-1.2 0-.4-.1-.7-.3-1-.2-.3-.6-.5-1-.7l-1.1-.5c-.6-.2-1-.6-1.3-.9-.3-.4-.4-.8-.4-1.4 0-.6.2-1.1.7-1.6.5-.4 1.1-.6 1.8-.6.5 0 1 .1 1.4.3.4.2.7.6.9 1l-.9.6c-.2-.3-.4-.6-.7-.8-.2-.2-.5-.3-.8-.3-.4 0-.7.1-1 .4-.3.2-.4.5-.4.9 0 .3.1.6.3.8.2.2.5.4.9.6l1.3.7z" fill="#233f8d"/><path fill-rule="evenodd" clip-rule="evenodd" fill="#00a959" d="M81.2 1.4l34 59 34.1 59h-31.5l-2.6-4.5-34-59-34.1 59-2.5 4.5H13.1l34-59z"/><path fill-rule="evenodd" clip-rule="evenodd" fill="#00885f" d="M21.3 119.4h23.3l36.7-63.5 36.5 63.5h23.3L81.2 2.5z"/><path class="st0" d="M101.6 44.6c32.6 3.2 56.6 13.9 56.6 26.5 0 15.1-34.6 29.7-77.1 29.7C38.6 100.8 4 86.3 4 71.1c0-12.6 24-23.3 56.6-26.5-21.2 2.2-36.3 7.9-36.3 16.5 0 11.2 25.5 17.8 56.8 17.8 31.3 0 56.8-6.6 56.8-17.8.1-8.6-15-14.4-36.3-16.5"/></svg>