<svg id="Layer_1" data-name="Layer 1" xmlns="http://www.w3.org/2000/svg" viewBox="0 0 535.25 122.42">
    <defs>
        <style>.cls-1{fill:#B4E1ED;}</style>
    </defs>
    <path class="cls-1" d="M639.43,306.57c1,9.24,6.09,11.36,21.37,11.18,12.91-.16,13.92-4.5,14.3-7.91.55-4.93-1.66-7.12-10.34-8.52,0,0-6-.88-18.39-2.92s-18.33-7.86-17.7-20.57c.58-11.95,10.47-21.24,28.31-21.24,20.59,0,30,9.29,30,22.65H674.4c0-5.6-5.53-8.34-16.81-8.34-10.8,0-15.29,3.06-15.75,6.65-.58,4.51.42,6.55,9.34,7.83,0,0-1.58-.24,15,2.12s22.52,9,22.22,21.28-10,23.27-28.88,23.27c-23.08,0-31.71-10.62-32-25.48Zm-56.66-50c-21,0-37.45,15.26-37.45,37.73s16.42,37.73,37.45,37.73,37.44-15.26,37.44-37.73S603.79,256.59,582.77,256.59Zm21.16,47c-1.8,6.75-6.8,9.91-11.52,11.25a50,50,0,0,1-19.29,0c-4.71-1.34-9.71-4.5-11.51-11.25a43.32,43.32,0,0,1,0-18.6c1.8-6.75,6.8-9.91,11.51-11.25a50,50,0,0,1,19.29,0c4.72,1.34,9.72,4.5,11.52,11.25a43.32,43.32,0,0,1,0,18.6Zm-80.54-40.84a30.52,30.52,0,0,0-2.71-1.82,30.12,30.12,0,0,0-15.53-4.34c-12.67,0-19.18,3.28-24.45,12.1h-2.84c0-9.59-7.9-12-17-11.18-5,.46-3.24.31-5,.46v10.78H457c.84,0,1.59.07,1.59.07,2.74.2,3.93,1.33,3.94,4.23l0,85.79h18.14V320h2c3.75,6.05,9.8,12.08,22.48,12.08a29.81,29.81,0,0,0,12.66-2.82,31.4,31.4,0,0,0,2.86-1.53,28.49,28.49,0,0,0,2.71-1.82C532.16,319.34,538,308,538,294.34h0C538,280.66,532.14,269.34,523.39,262.78Zm-2.29,40.84a16.4,16.4,0,0,1-11.26,11.27,39.4,39.4,0,0,1-16.93,0,16.41,16.41,0,0,1-11.27-11.27,46.52,46.52,0,0,1,0-18.61,16.38,16.38,0,0,1,11.27-11.26,39.4,39.4,0,0,1,16.93,0A16.37,16.37,0,0,1,521.1,285a46.52,46.52,0,0,1,0,18.61Zm-96.61-46.17c-11.37,0-17.13,5.48-20.3,12.1h-2c-3-7.2-9.79-12.1-19-12.1-11,0-17.31,3.37-21.81,12.1h-2.83c0-9.59-6.66-12.88-15.77-12-5,.46-3.24.31-5,.46v10.78h1.19c.52,0,1.58.07,1.58.07,2.75.2,3.93,1.33,3.94,4.23v.29h0v57.86h18.15V285.56h0a22.73,22.73,0,0,1,.56-5.54,9.77,9.77,0,0,1,6.71-6.71,23.79,23.79,0,0,1,10.08,0,9.77,9.77,0,0,1,6.71,6.71,22.24,22.24,0,0,1,.56,5.54h0v45.62h18.15V285.56h0a22.73,22.73,0,0,1,.56-5.54,9.81,9.81,0,0,1,6.71-6.71,23.84,23.84,0,0,1,10.09,0,9.81,9.81,0,0,1,6.71,6.71,22.73,22.73,0,0,1,.56,5.54h0v45.62h18.14v-49C448.11,267.39,437.6,257.45,424.49,257.45Zm-91.85,62.48h-1.19c-.33,0-1.58-.07-1.58-.07-2.75-.2-3.93-1.33-3.95-4.23v-57h-15V268.7h-2c-3.75-6.05-12.94-12.08-25.61-12.08a29.78,29.78,0,0,0-12.66,2.82,31.57,31.57,0,0,0-2.87,1.53,28.35,28.35,0,0,0-2.7,1.82c-8.75,6.57-14.6,17.89-14.59,31.57h0c0,13.68,5.85,25,14.6,31.56a32.05,32.05,0,0,0,2.71,1.82,30.42,30.42,0,0,0,4.35,2.17,29.72,29.72,0,0,0,11.18,2.17c12.67,0,22.34-3.28,27.6-12.1h2.84c0,9.59,4.76,12,13.86,11.18,5-.46,3.25-.31,5-.46Zm-25.83-16.31a16.4,16.4,0,0,1-11.26,11.27,39.4,39.4,0,0,1-16.93,0,16.43,16.43,0,0,1-11.27-11.27,46.52,46.52,0,0,1,0-18.61,16.4,16.4,0,0,1,11.27-11.26,39.4,39.4,0,0,1,16.93,0A16.37,16.37,0,0,1,306.81,285a46.52,46.52,0,0,1,0,18.61Zm-85.87-45H203.08v72.57h18.15V287.74c0-10.08,6.62-15,15.84-15h10.66V259l-4.62-.44a30.29,30.29,0,0,0-6.17,0c-6.94.74-11.66,3.73-14,10.46h-2ZM190.2,330.25V315.49H175.36c-2.6,0-4-1.44-4-4.32v-38.4h19.59V258.61H171.32V236.43H153.18v73.06c0,10,1.87,13.6,6.11,17.3a15.65,15.65,0,0,0,9.4,3.87C173.39,331,179.34,330.77,190.2,330.25Z" transform="translate(-153.18 -236.43)"/>
</svg>